<svg width="38" height="39" viewBox="0 0 38 39" fill="none" xmlns="http://www.w3.org/2000/svg">
<path d="M3.22122 12.2265L0.376831 18.339H9.4518L12.093 12.2265H3.22122Z" fill="#00FF00"/>
<path d="M5.52382 19.4504H9.58723L11.8221 25.7712H2.47626L5.52382 19.4504Z" fill="#00FF00"/>
<path d="M14.8019 19.1725L12.1607 25.0766L9.45178 18.339L12.093 12.2265L14.8019 19.1725Z" fill="#00FF00"/>
<path d="M34.933 26.4097L37.7774 20.2973H28.7025L26.0612 26.4097H34.933Z" fill="#00FF00"/>
<path d="M32.6304 19.1859H28.567L26.3322 12.865H35.678L32.6304 19.1859Z" fill="#00FF00"/>
<path d="M23.3523 19.4637L25.9935 13.5596L28.7025 20.2973L26.0612 26.4097L23.3523 19.4637Z" fill="#00FF00"/>
<path d="M12.1628 35.6788L18.1225 38.5962V29.2885L12.1628 26.5796V35.6788Z" fill="#00FF00"/>
<path d="M19.2061 33.3172V29.1496L25.3689 26.8574V36.4429L19.2061 33.3172Z" fill="#00FF00"/>
<path d="M18.9352 23.8012L24.6917 26.5101L18.1225 29.2885L12.1628 26.5796L18.9352 23.8012Z" fill="#00FF00"/>
<path d="M25.9915 3.1539L20.0318 0.236572V9.54423L25.9915 12.2532V3.1539Z" fill="#00FF00"/>
<path d="M18.9482 5.51554V9.68314L12.7854 11.9753V2.38983L18.9482 5.51554Z" fill="#00FF00"/>
<path d="M19.2191 15.0316L13.4626 12.3226L20.0318 9.54422L25.9915 12.2532L19.2191 15.0316Z" fill="#00FF00"/>
</svg>